<svg width="18" height="16" viewBox="0 0 18 16" fill="none" xmlns="http://www.w3.org/2000/svg">
<path d="M17.681 8.80975L11.2022 15.6648C10.9993 15.8794 10.7242 16 10.4373 16C10.1504 16 9.87529 15.8794 9.67243 15.6648C9.46958 15.4502 9.35561 15.159 9.35561 14.8555C9.35561 14.552 9.46958 14.2609 9.67243 14.0462L14.3075 9.14393H1.07981C0.793429 9.14393 0.518775 9.02356 0.31627 8.8093C0.113766 8.59504 0 8.30444 0 8.00143C0 7.69842 0.113766 7.40781 0.31627 7.19355C0.518775 6.97929 0.793429 6.85892 1.07981 6.85892H14.3075L9.67423 1.95376C9.47137 1.73913 9.35741 1.44802 9.35741 1.14449C9.35741 0.840951 9.47137 0.549846 9.67423 0.335212C9.87709 0.120579 10.1522 3.19828e-09 10.4391 0C10.726 -3.19828e-09 11.0011 0.120579 11.204 0.335212L17.6828 7.19025C17.7835 7.29653 17.8634 7.42282 17.9178 7.56185C17.9722 7.70088 18.0002 7.84991 18 8.00039C17.9998 8.15088 17.9716 8.29984 17.9168 8.43874C17.8621 8.57763 17.782 8.70372 17.681 8.80975Z" fill="#888888"/>
</svg>